<?xml version="1.0" standalone="no"?>
<!DOCTYPE svg PUBLIC "-//W3C//DTD SVG 20010904//EN"
 "http://www.w3.org/TR/2001/REC-SVG-20010904/DTD/svg10.dtd">
<svg version="1.0" xmlns="http://www.w3.org/2000/svg"
 width="512.000000pt" height="512.000000pt" viewBox="0 0 512.000000 512.000000"
 preserveAspectRatio="xMidYMid meet">

<g transform="translate(0.000000,512.000000) scale(0.100000,-0.100000)"
fill="#000000" stroke="none">
<path d="M2604 4968 c-49 -23 -110 -191 -92 -253 4 -16 22 -93 40 -170 42
-185 42 -265 -2 -440 -48 -194 -44 -259 31 -555 25 -98 39 -177 39 -217 0 -56
-3 -64 -25 -79 -20 -13 -39 -15 -81 -11 -51 5 -158 48 -195 79 -28 23 -49 75
-59 150 -5 40 -13 105 -19 145 -8 60 -16 81 -55 138 -50 73 -53 89 -36 190 6
33 11 107 11 164 0 64 6 120 14 145 49 140 -30 370 -147 432 -69 36 -192 4
-224 -58 -25 -48 -14 -154 25 -249 36 -88 91 -310 121 -484 30 -176 116 -528
174 -720 9 -27 16 -69 16 -93 0 -56 -39 -173 -84 -250 -42 -70 -43 -79 -16
-129 24 -46 26 -86 4 -104 -14 -12 -26 -8 -85 24 -38 20 -76 37 -85 37 -32 0
-98 -47 -156 -110 -31 -34 -63 -60 -70 -58 -8 3 -16 28 -19 60 -3 30 -9 60
-13 67 -4 6 -2 51 5 99 l12 88 -50 50 c-57 57 -110 147 -147 251 -50 141 -112
235 -177 269 -46 23 -109 18 -160 -15 -70 -44 -92 -77 -86 -129 6 -58 49 -118
197 -276 180 -193 265 -330 342 -554 33 -96 42 -136 48 -227 9 -137 23 -171
155 -365 55 -80 128 -188 163 -240 76 -113 102 -142 165 -182 l47 -31 0 -347
c0 -323 1 -348 18 -363 25 -23 68 -21 92 3 19 19 20 33 20 355 l0 335 28 6
c122 27 261 82 314 124 20 17 40 30 43 30 3 0 46 -24 95 -52 l90 -53 0 -597
c0 -585 0 -598 20 -618 21 -21 47 -25 66 -12 32 21 34 51 34 601 0 379 3 551
11 551 5 0 28 -10 49 -22 l40 -23 0 -303 c0 -289 1 -303 20 -322 25 -25 72
-26 93 -2 15 17 17 55 17 339 l0 320 42 43 c195 206 409 782 468 1263 12 89
10 166 -6 315 -6 50 -3 58 44 140 30 52 55 110 62 146 6 32 22 79 35 105 12
25 28 63 35 84 6 21 57 113 113 205 110 182 126 217 126 277 1 90 -75 182
-173 210 -47 14 -60 14 -83 3 -25 -12 -31 -26 -60 -138 -17 -69 -46 -156 -63
-195 -40 -86 -80 -201 -80 -230 0 -11 -16 -77 -35 -145 -71 -252 -196 -441
-293 -444 -35 -1 -38 2 -67 57 -17 31 -37 63 -43 69 -19 19 -14 84 14 198 21
89 26 133 29 290 4 200 10 254 55 454 16 72 32 158 35 191 4 33 16 115 27 182
12 76 19 150 16 194 -3 65 -7 74 -36 100 -64 57 -154 61 -235 9 -32 -20 -46
-37 -53 -61 -4 -19 -9 -194 -9 -389 -1 -195 -5 -391 -9 -435 -37 -393 -57
-537 -78 -562 -20 -24 -85 -15 -120 16 l-33 29 -3 194 c-2 109 2 260 10 348 7
85 12 227 10 315 -2 116 1 180 12 233 29 136 16 260 -40 395 -35 84 -91 165
-128 188 -35 21 -34 21 -62 7z m194 -2257 c42 -21 84 -47 93 -57 9 -11 33 -56
54 -101 40 -87 40 -91 6 -183 -11 -30 -30 -93 -42 -140 -19 -74 -28 -90 -63
-123 -55 -51 -83 -79 -101 -99 -49 -58 -177 20 -298 181 l-70 94 0 146 -1 146
37 78 c19 42 43 80 52 83 8 4 29 1 45 -6 l30 -12 0 -183 c0 -171 1 -183 21
-201 15 -14 24 -16 37 -8 15 10 18 37 22 198 5 182 6 188 29 207 34 28 62 24
149 -20z"/>
</g>
</svg>
